{
  "accessors": [
    {
      "bufferView": 2,
      "componentType": 5126,
      "count": 896,
      "max": [
        1,
        1,
        0.40721380710601807
      ],
      "min": [
        -1,
        -1,
        -0.8127862811088562
      ],
      "type": "VEC3"
    },
    {
      "bufferView": 2,
      "byteOffset": 10752,
      "componentType": 5126,
      "count": 896,
      "max": [
        0.99879562854766846,
        0.99879550933837891,
        1
      ],
      "min": [
        -0.99879562854766846,
        -0.99879550933837891,
        -0.75743591785430908
      ],
      "type": "VEC3"
    },
    {
      "bufferView": 1,
      "componentType": 5126,
      "count": 896,
      "max": [
        0.90235567092895508,
        0.75724142789840698
      ],
      "min": [
        0.43723240494728088,
        0.2991563081741333
      ],
      "type": "VEC2"
    },
    {
      "bufferView": 0,
      "componentType": 5125,
      "count": 906,
      "max": [
        895
      ],
      "min": [
        0
      ],
      "type": "SCALAR"
    },
    {
      "bufferView": 2,
      "byteOffset": 21504,
      "componentType": 5126,
      "count": 897,
      "max": [
        1,
        1,
        0.40721368789672852
      ],
      "min": [
        -1,
        -1,
        -0.8127862811088562
      ],
      "type": "VEC3"
    },
    {
      "bufferView": 2,
      "byteOffset": 32268,
      "componentType": 5126,
      "count": 897,
      "max": [
        0.99879562854766846,
        0.99879550933837891,
        0.75743591785430908
      ],
      "min": [
        -0.99879562854766846,
        -0.99879550933837891,
        -1
      ],
      "type": "VEC3"
    },
    {
      "bufferView": 1,
      "byteOffset": 7168,
      "componentType": 5126,
      "count": 897,
      "max": [
        0.45570600032806396,
        0.68076741695404053
      ],
      "min": [
        0.45570600032806396,
        0.68076741695404053
      ],
      "type": "VEC2"
    },
    {
      "bufferView": 0,
      "byteOffset": 3624,
      "componentType": 5125,
      "count": 906,
      "max": [
        896
      ],
      "min": [
        0
      ],
      "type": "SCALAR"
    },
    {
      "bufferView": 2,
      "byteOffset": 43032,
      "componentType": 5126,
      "count": 152,
      "max": [
        1,
        1,
        1
      ],
      "min": [
        -1,
        -1,
        -1
      ],
      "type": "VEC3"
    },
    {
      "bufferView": 2,
      "byteOffset": 44856,
      "componentType": 5126,
      "count": 152,
      "max": [
        0.99055439233779907,
        0.99055439233779907,
        0.99055439233779907
      ],
      "min": [
        -0.99055439233779907,
        -0.99055439233779907,
        -0.99055439233779907
      ],
      "type": "VEC3"
    },
    {
      "bufferView": 1,
      "byteOffset": 14344,
      "componentType": 5126,
      "count": 152,
      "max": [
        0.98211652040481567,
        0.90346437692642212
      ],
      "min": [
        0.017883589491248131,
        0.90346437692642212
      ],
      "type": "VEC2"
    },
    {
      "bufferView": 0,
      "byteOffset": 7248,
      "componentType": 5125,
      "count": 900,
      "max": [
        151
      ],
      "min": [
        0
      ],
      "type": "SCALAR"
    }
  ],
  "asset": {
    "extras": {
      "author": "3Dee (https://sketchfab.com/mellydeeis)",
      "license": "CC-BY-4.0 (http://creativecommons.org/licenses/by/4.0/)",
      "source": "https://sketchfab.com/3d-models/a-diamond-1cfafbdf8bfd4c8ca3ed9621789cdf01",
      "title": "A Diamond"
    },
    "generator": "Sketchfab-9.94.0",
    "version": "2.0"
  },
  "bufferViews": [
    {
      "buffer": 0,
      "byteLength": 10848,
      "byteOffset": 0,
      "name": "floatBufferViews",
      "target": 34963
    },
    {
      "buffer": 0,
      "byteLength": 15560,
      "byteOffset": 10848,
      "byteStride": 8,
      "name": "floatBufferViews",
      "target": 34962
    },
    {
      "buffer": 0,
      "byteLength": 46680,
      "byteOffset": 26408,
      "byteStride": 12,
      "name": "floatBufferViews",
      "target": 34962
    }
  ],
  "buffers": [
    {
      "byteLength": 73088,
      "uri": "scene.bin"
    }
  ],
  "images": [
    {
      "uri": "textures/Material.001_metallicRoughness.png"
    },
    {
      "uri": "textures/Material_metallicRoughness.png"
    }
  ],
  "materials": [
    {
      "doubleSided": true,
      "emissiveFactor": [
        0.13408346207598268,
        0.12354653766147436,
        0.10802597291274232
      ],
      "name": "Material.003",
      "pbrMetallicRoughness": {
        "baseColorFactor": [
          0.80000000000000004,
          0.80000000000000004,
          0.80000000000000004,
          1
        ],
        "metallicFactor": 0,
        "roughnessFactor": 0.16590563165905636
      }
    },
    {
      "alphaMode": "BLEND",
      "doubleSided": true,
      "name": "Material.001",
      "pbrMetallicRoughness": {
        "baseColorFactor": [
          1,
          1,
          1,
          0.95585996955859964
        ],
        "metallicFactor": 0.63318112633181123,
        "metallicRoughnessTexture": {
          "index": 0,
          "texCoord": 0
        },
        "roughnessFactor": 0.085235920852359204
      }
    },
    {
      "alphaMode": "BLEND",
      "doubleSided": true,
      "name": "Material",
      "occlusionTexture": {
        "index": 1,
        "strength": 0.62100456621004563,
        "texCoord": 0
      },
      "pbrMetallicRoughness": {
        "baseColorFactor": [
          1,
          1,
          1,
          0
        ],
        "metallicFactor": 0.18873668188736681,
        "metallicRoughnessTexture": {
          "index": 1,
          "texCoord": 0
        },
        "roughnessFactor": 0
      }
    }
  ],
  "meshes": [
    {
      "name": "Material-material",
      "primitives": [
        {
          "attributes": {
            "NORMAL": 1,
            "POSITION": 0,
            "TEXCOORD_0": 2
          },
          "indices": 3,
          "material": 2,
          "mode": 4
        }
      ]
    },
    {
      "name": "Material_001-material",
      "primitives": [
        {
          "attributes": {
            "NORMAL": 5,
            "POSITION": 4,
            "TEXCOORD_0": 6
          },
          "indices": 7,
          "material": 1,
          "mode": 4
        }
      ]
    },
    {
      "name": "Material_003-material",
      "primitives": [
        {
          "attributes": {
            "NORMAL": 9,
            "POSITION": 8,
            "TEXCOORD_0": 10
          },
          "indices": 11,
          "material": 0,
          "mode": 4
        }
      ]
    }
  ],
  "nodes": [
    {
      "children": [
        1
      ],
      "name": "RootNode (gltf orientation matrix)",
      "rotation": [
        -0.70710678118654746,
        -0,
        -0,
        0.70710678118654757
      ]
    },
    {
      "children": [
        2
      ],
      "name": "RootNode (model correction matrix)"
    },
    {
      "children": [
        3,
        5,
        7
      ],
      "name": "Collada visual scene group"
    },
    {
      "children": [
        4
      ],
      "matrix": [
        1.1971320000000001,
        0,
        0,
        0,
        0,
        1.1971320000000001,
        0,
        0,
        0,
        0,
        1.1971320000000001,
        0,
        1.2908000000000001e-08,
        -1.07566e-08,
        5.2062010000000001,
        1
      ],
      "name": "dobj"
    },
    {
      "mesh": 0,
      "name": "Material-material"
    },
    {
      "children": [
        6
      ],
      "matrix": [
        1.2043729999999999,
        0,
        0,
        0,
        0,
        1.2043729999999999,
        0,
        0,
        0,
        0,
        1.2043729999999999,
        0,
        1.12489e-09,
        -6.7493499999999997e-09,
        5.2036069999999999,
        1
      ],
      "name": "dobj.001"
    },
    {
      "mesh": 1,
      "name": "Material_001-material"
    },
    {
      "children": [
        8
      ],
      "matrix": [
        1.263009,
        0,
        0,
        0,
        0,
        1.263009,
        0,
        0,
        0,
        0,
        2.10175,
        0,
        0,
        0,
        2.0723240000000001,
        1
      ],
      "name": "Cube"
    },
    {
      "mesh": 2,
      "name": "Material_003-material"
    }
  ],
  "samplers": [
    {
      "magFilter": 9729,
      "minFilter": 9987,
      "wrapS": 10497,
      "wrapT": 10497
    }
  ],
  "scene": 0,
  "scenes": [
    {
      "name": "OSG_Scene",
      "nodes": [
        0
      ]
    }
  ],
  "textures": [
    {
      "sampler": 0,
      "source": 0
    },
    {
      "sampler": 0,
      "source": 1
    }
  ]
}

